inDegrees=no
num_controls=7
num_derivatives=13
num_iterations=159
num_multipliers=7
num_parameters=0
num_slacks=7
num_states=26
objective=5.493590
objective_accelerations=0.413169
objective_balance=0.023704
objective_effort=0.469809
objective_height=4.561785
objective_ligament=0.025123
solver_duration=1669.022926
status=Solve_Succeeded
success=true
DataType=double
version=3
OpenSimVersion=4.4-2022-07-23-0e9fedc
endheader
time	/jointset/ground_pelvis/pelvis_tilt/value	/jointset/ground_pelvis/pelvis_tx/value	/jointset/ground_pelvis/pelvis_ty/value	/jointset/hip_l/hip_flexion_l/value	/jointset/hip_l/hip_adduction_l/value	/jointset/hip_l/hip_rotation_l/value	/jointset/back/lumbar_extension/value	/jointset/patellofemoral_l/patellar_flexion_l/value	/jointset/knee_l/knee_flexion_l/value	/jointset/knee_l/knee_adduction_l/value	/jointset/knee_l/knee_rotation_l/value	/jointset/ankle_l/ankle_angle_l/value	/jointset/subtalar_l/subtalar_angle_l/value	/jointset/ground_pelvis/pelvis_tilt/speed	/jointset/ground_pelvis/pelvis_tx/speed	/jointset/ground_pelvis/pelvis_ty/speed	/jointset/hip_l/hip_flexion_l/speed	/jointset/hip_l/hip_adduction_l/speed	/jointset/hip_l/hip_rotation_l/speed	/jointset/back/lumbar_extension/speed	/jointset/patellofemoral_l/patellar_flexion_l/speed	/jointset/knee_l/knee_flexion_l/speed	/jointset/knee_l/knee_adduction_l/speed	/jointset/knee_l/knee_rotation_l/speed	/jointset/ankle_l/ankle_angle_l/speed	/jointset/subtalar_l/subtalar_angle_l/speed	/forceset/tau_hip_flexion_l	/forceset/tau_hip_adduction_l	/forceset/tau_hip_rotation_l	/forceset/tau_knee_flexion_l	/forceset/tau_ankle_angle_l	/forceset/tau_subtalar_angle_l	/forceset/tau_lumbar_extension	lambda_cid13_p0	lambda_cid13_p1	lambda_cid13_p2	lambda_cid13_p3	lambda_cid13_p4	lambda_cid13_p5	lambda_cid14_p0	/jointset/ground_pelvis/pelvis_tilt/accel	/jointset/ground_pelvis/pelvis_tx/accel	/jointset/ground_pelvis/pelvis_ty/accel	/jointset/hip_l/hip_flexion_l/accel	/jointset/hip_l/hip_adduction_l/accel	/jointset/hip_l/hip_rotation_l/accel	/jointset/back/lumbar_extension/accel	/jointset/patellofemoral_l/patellar_flexion_l/accel	/jointset/knee_l/knee_flexion_l/accel	/jointset/knee_l/knee_adduction_l/accel	/jointset/knee_l/knee_rotation_l/accel	/jointset/ankle_l/ankle_angle_l/accel	/jointset/subtalar_l/subtalar_angle_l/accel	gamma_cid13_p0	gamma_cid13_p1	gamma_cid13_p2	gamma_cid13_p3	gamma_cid13_p4	gamma_cid13_p5	gamma_cid14_p0
0.5	-0.113303767590888	-0.0571801377278935	0.8245130432161323	0.8831883457505788	-0.3339494819863975	-0.1091311217229602	-0.7825905775609965	0.7866283285783812	0.7866283285783996	-0.1365843763353967	-0.1745265210424227	0.06667410034177086	-0.01964791358290379	-0.1894069755186823	-0.206566939961601	-0.3345290441228209	1.467743829500442	-0.04597310601970637	0.4954529466919407	-0.8401740899485215	1.419752759088878	1.419752759088879	0.08614131196184961	-3.526344313529874e-05	0.2326381922914476	0.02080855324699678	-0.2794401019179014	0.01508142045861892	0.0001537072340088143	-0.2164510681430648	0.1208931275634821	0.05115619789647358	0.3302211581854562	-6.002469186647469	-22.78229475255169	5.023841976677081	-10.11605358411288	-705.4704002307188	-80.25631793674989	-14.98026825152006	0.2525428526716191	0.65687260679333	-0.09225986272775	-1.43531049478553	0.3194276803298651	-0.3986738884309993	1.761134950994534	-1.141486592164343	-1.141486592164343	-0.1284924312055564	0.01753338629463975	0.02609461145398309	0.3523064036312597	-5.73797595802647e-08	-4.290174520477778e-07	1.124579509635245e-07	-4.36810121474662e-08	-8.332790701683471e-08	-4.408803586024769e-08	-7.743334694127042e-08
0.51	-0.1151849422437882	-0.05921285884234601	0.8211638591724881	0.8977918491544639	-0.3343936907160774	-0.1041976842363116	-0.7909032768802937	0.8007666249055201	0.8007666249055246	-0.1357299159654062	-0.1745268002555229	0.06900112585286473	-0.0194228691432859	-0.1867970571378814	-0.1999675762460612	-0.335233228627851	1.452747640628348	-0.0428762217637308	0.4911682001494769	-0.8222709943663904	1.407700286513372	1.407700286513377	0.0847431503086844	-2.289366405636617e-05	0.2327207800067408	0.02418071156246301	-0.2858721957244584	0.01537864558289457	0.0001191369672817841	-0.2188808621429209	0.1210167336588011	0.05150679462024489	0.3364321582478222	-6.186970454614144	-22.86664257773466	4.996612404827332	-10.09686257894548	-709.3424779831341	-80.17207900146238	-14.46578065670359	0.2698464995812574	0.6629153711108023	-0.04833265272079724	-1.563159769034911	0.3037214298493668	-0.4533938516664082	1.819113793620428	-1.268045690009379	-1.268045690008867	-0.1466912024634821	-0.007228576192227082	-0.007592552746350987	0.3267809363615798	-5.245358830894556e-08	-3.929398043414856e-07	1.050238705674018e-07	-4.304477520841838e-08	-7.183894028214315e-08	-3.711125733087015e-08	-7.201177752619956e-08
0.52	-0.1170390916791242	-0.06117929689620816	0.8178098663021277	0.9122391133325046	-0.3348071500768722	-0.09930909797798652	-0.7990341018574104	0.8147782128869464	0.8147782128869469	-0.1348896798459644	-0.1745270192408119	0.07132759056024975	-0.01916468104234192	-0.1840019320051874	-0.1933103278435302	-0.3354908094660725	1.43649598433171	-0.03982323224304207	0.4864827010265205	-0.8037992215123235	1.394411089947241	1.39441108994725	0.08329646185186368	-2.321788124552347e-05	0.2325260315494985	0.02743728551222079	-0.2923042895310045	0.01567587070718508	8.456670056168449e-05	-0.2213106561427731	0.1211403397541254	0.05185739134403356	0.3426431583101928	-6.374840994352608	-22.95109674840117	4.97019516311196	-10.10297494406078	-713.2912910536668	-80.11209562790231	-13.94898737917769	0.2895842030504198	0.6684495441914322	-0.002939129366052568	-1.686403979694386	0.3106487332725107	-0.4788244045295356	1.874870405381737	-1.388831390289208	-1.388831390289177	-0.1381977919366249	0.01499458704102927	-0.02937262305330245	0.3291895304895289	-4.896264223942244e-08	-3.518107441163606e-07	1.080687712532683e-07	-4.025747585266812e-08	-6.2371452049564e-08	-3.054529896013709e-08	-6.724811146126685e-08
0.53	-0.1188644174185724	-0.06307892813622759	0.8144555319447521	0.9265177601382586	-0.3351902901170666	-0.09446920815884606	-0.8069774782519827	0.8286508584547408	0.8286508584547311	-0.1340641272118118	-0.1745271719378753	0.07365076954643601	-0.01887448384869503	-0.1810348808947357	-0.1866113173888486	-0.3353004903084135	1.419033057580043	-0.03681566577967834	0.4814309998758459	-0.7847956616648112	1.37991975912282	1.379919759122829	0.08180615641756284	-1.022552632501862e-05	0.2320653970591312	0.0305793982995788	-0.2984607110971946	0.01588039972981637	3.195439737461538e-05	-0.2238271426654137	0.1212944286057932	0.05211395781133669	0.3485819576692089	-6.549908610272159	-22.99535140231367	4.935536948864945	-10.05338212044052	-717.113103896824	-80.00321478566231	-13.43054687328273	0.3045109561135234	0.6713094527744904	0.04134171361984486	-1.806290096243543	0.2942042725483849	-0.5280397337303644	1.925158135146277	-1.509010652552693	-1.509010652552677	-0.1556898124421336	-0.005955106459818496	-0.06107511102562393	0.3033487774132399	-4.549741037106396e-08	-3.117211916793461e-07	1.112038878997329e-07	-3.719511412072934e-08	-5.366968904343157e-08	-2.429628678414624e-08	-6.250923636267013e-08
0.54	-0.1206592235687048	-0.06491143274036693	0.8111053656340108	0.9406157670618258	-0.3355436757586905	-0.08968177470389145	-0.8147284071759383	0.8423726453694833	0.8423726453694671	-0.1332537262106613	-0.1745272760446188	0.07596800893791952	-0.01855354020226375	-0.1778980141414296	-0.1798850006675115	-0.3346572001392141	1.400368007894746	-0.03387235252911246	0.4759914281894149	-0.7653097273888732	1.364239359337033	1.364239359337042	0.08026613525265121	-1.349981849880921e-05	0.2313381126088752	0.03358657606910889	-0.3046171326633836	0.01608492875244864	-2.065790585098758e-05	-0.2263436291880509	0.1214485174574626	0.05237052427864206	0.3545207570282251	-6.729340530245904	-23.03950362793364	4.901618320046349	-10.02602960189501	-721.0250752337148	-79.91909166127706	-12.91124749563082	0.3235473316214627	0.6739107975224213	0.08765507294200001	-1.926828566420345	0.2977980907129544	-0.5563985116808327	1.971345291066931	-1.626645182562462	-1.626645182562475	-0.1481409380587506	0.01174125762218444	-0.08270261503122071	0.3022025269239079	-4.20606282571855e-08	-2.727817329653474e-07	1.144388179494126e-07	-3.382842805768839e-08	-4.581511139421894e-08	-1.839793848318933e-08	-5.779778956725363e-08
0.55	-0.1224218607201891	-0.06667659803619633	0.807763893750058	0.9545212810867485	-0.3358679306984049	-0.08495051032473075	-0.8222821959160072	0.8559317916950896	0.8559317916950858	-0.1324589557319966	-0.1745273461370853	0.07827667026914618	-0.01820317515696583	-0.174603689173516	-0.1731490954563461	-0.3335612301158984	1.380543952400362	-0.03099209738344782	0.4702001493323942	-0.7453831507929849	1.347398239433438	1.347398239433451	0.07867933445211264	-2.55183680578281e-06	0.2303498550039648	0.03646065515839845	-0.3104841989314041	0.01620388616563999	-8.319882720911659e-05	-0.2288743183227784	0.1215305000830487	0.0525570883124	0.360155357260971	-6.925053994531063	-23.04926673314158	4.860919150938112	-9.913737277501102	-724.7536223498521	-79.79795283474721	-12.39195471395692	0.3362292257384553	0.6732684404494286	0.13195164110269	-2.038825815417256	0.2811353185106933	-0.5997357888581261	2.013044318741308	-1.741584301198957	-1.741584301198373	-0.1652861211279397	-0.004505046266531545	-0.1135401592510077	0.276170444142421	-3.861358384419e-08	-2.328738790918614e-07	1.19286690214368e-07	-2.991045875566152e-08	-3.837638819049779e-08	-1.254322879076967e-08	-5.303361604214066e-08
0.5600000000000001	-0.1241507837927245	-0.0683744366684072	0.8044356583011537	0.9682228282018303	-0.3361637838682584	-0.08027900737737474	-0.829634772795139	0.8693167790402705	0.8693167790402838	-0.1316803205553546	-0.1745273620726729	0.0805741184591174	-0.0178248373519329	-0.1711551983511005	-0.1664196679438036	-0.3320099131295028	1.359574625927186	-0.02819199855708073	0.4640391418295558	-0.7250673552014215	1.329407563252207	1.329407563252224	0.07703907484851256	-2.668443487727284e-06	0.2290954843578502	0.0391811280161249	-0.3163512651994327	0.01632284357881749	-0.0001457397485682415	-0.2314050074575075	0.1216124827086316	0.05274365234614185	0.365789957493713	-7.125912168672683	-23.05877662207243	4.820919379971601	-9.821106356547801	-728.5824507022877	-79.70170185054538	-11.8736364911599	0.354380502521997	0.672615257797722	0.1787244655579556	-2.155882762178794	0.2817668268534611	-0.6303442408443738	2.049189090202036	-1.85655643808957	-1.85655643808958	-0.1588326986710189	0.00952833994720384	-0.1359252232722548	0.271481280611247	-3.515422467225405e-08	-1.918039510269907e-07	1.260700931376543e-07	-2.533094956685157e-08	-3.14366903213664e-08	-6.740885428594729e-09	-4.820617044139192e-08
